<svg width="48" height="48" viewBox="0 0 48 48" fill="none" xmlns="http://www.w3.org/2000/svg">
  <path d="M8 44V16L24 4L40 16V44" stroke="#1D4B26" stroke-width="2" stroke-linecap="round" stroke-linejoin="round"/>
  <path d="M16 44V36C16 34.8954 16.8954 34 18 34H30C31.1046 34 32 34.8954 32 36V44" stroke="#1D4B26" stroke-width="2" stroke-linecap="round" stroke-linejoin="round"/>
  <path d="M4 44H44" stroke="#1D4B26" stroke-width="2" stroke-linecap="round"/>
  <path d="M4 12L8 16M44 12L40 16" stroke="#1D4B26" stroke-width="2" stroke-linecap="round"/>
  <path d="M10 8L14 12M38 8L34 12" stroke="#1D4B26" stroke-width="2" stroke-linecap="round"/>
  <path d="M18 4L20 6M30 4L28 6" stroke="#1D4B26" stroke-width="2" stroke-linecap="round"/>
  <rect x="20" y="20" width="8" height="8" stroke="#1D4B26" stroke-width="2"/>
  <path d="M16 26H16.01M32 26H32.01" stroke="#1D4B26" stroke-width="2" stroke-linecap="round"/>
</svg>