<svg width="48" height="48" viewBox="0 0 48 48" fill="none" xmlns="http://www.w3.org/2000/svg">
  <path d="M24 4L26.5 10.5L33.5 11.5L28.5 16L30 23L24 19.5L18 23L19.5 16L14.5 11.5L21.5 10.5L24 4Z" stroke="#1D4B26" stroke-width="2" stroke-linecap="round" stroke-linejoin="round"/>
  <path d="M8 28C12 28 12 32 16 32C20 32 20 28 24 28C28 28 28 32 32 32C36 32 36 28 40 28" stroke="#1D4B26" stroke-width="2" stroke-linecap="round" stroke-linejoin="round"/>
  <circle cx="8" cy="28" r="2" fill="#1D4B26"/>
  <circle cx="16" cy="32" r="2" fill="#1D4B26"/>
  <circle cx="24" cy="28" r="2" fill="#1D4B26"/>
  <circle cx="32" cy="32" r="2" fill="#1D4B26"/>
  <circle cx="40" cy="28" r="2" fill="#1D4B26"/>
  <path d="M12 38C12 38 14 36 16 36C18 36 20 38 22 38C24 38 26 36 28 36C30 36 32 38 34 38C36 38 38 36 40 36" stroke="#1D4B26" stroke-width="2" stroke-linecap="round"/>
  <circle cx="12" cy="38" r="1.5" fill="#1D4B26"/>
  <circle cx="20" cy="38" r="1.5" fill="#1D4B26"/>
  <circle cx="28" cy="38" r="1.5" fill="#1D4B26"/>
  <circle cx="36" cy="38" r="1.5" fill="#1D4B26"/>
  <path d="M4 44H44" stroke="#1D4B26" stroke-width="2" stroke-linecap="round"/>
</svg>